---
title: Diagrama Entidad-Relación (ER)
---
erDiagram
    Usuario ||--o{ Chequera : "tiene"
    Chequera ||--o{ ChequeraPago : "genera"
    Chequera ||--o{ ChequeraCuota : "incluye"
    ChequeraPago }o--|| BancoMovimiento : "origina"
    Usuario ||--o{ Contrato : "firma"
    Contrato ||--o{ ContratoFactura : "factura"
    Articulo ||--o{ ProveedorArticulo : "proveído por"
    Carrera ||--o{ Plan : "incluye"
    Persona ||--o{ ChequeraSerie : "posee"
    Persona ||--o{ Domicilio : "domicilio"
    Persona ||--o{ Legajo : "legajo"
    MercadoPagoContext ||--o{ MercadoPagoContextHistory : "tiene historial"
    MercadoPagoContext ||--o{ ReservaVacante : "asociado a"
    Facultad ||--o{ Dependencia : "tiene"
    Geografica ||--o{ Dependencia : "ubicada en"
    Cuenta ||--o{ Dependencia : "asociada a"
    Campanha ||--o{ ReservaVacante : "genera"
    Persona ||--o{ ReservaVacante : "solicita"
