---
title: Arquitectura Hexagonal - Módulo ChequeraCuota (v3.38.0)
---

classDiagram
    direction TB

    namespace domain {
        class ChequeraCuota {
            +Integer facultadId
            +Integer tipoChequeraId
            +Long chequeraSerieId
            +Integer productoId
            +Integer alternativaId
            +Integer cuotaId
            +Integer mes
            +Integer anho
            +Integer arancelTipoId
            +OffsetDateTime vencimiento1
            +BigDecimal importe1
            +BigDecimal importe1Original
            +OffsetDateTime vencimiento2
            +BigDecimal importe2
            +BigDecimal importe2Original
            +OffsetDateTime vencimiento3
            +BigDecimal importe3
            +BigDecimal importe3Original
            +String codigoBarras
            +String i2Of5
            +Byte pagado
            +Byte baja
            +Byte manual
            +Byte compensada
            +Integer tramoId
            +cuotaKey() String
            +jsonify() String
        }

        class Producto
        class ChequeraSerie
        class Facultad
        class TipoChequera

        class ChequeraCuotaRepository {
            << interface >>
            +findAllByChequera(Integer, Integer, Long) List~ChequeraCuota~
            +findAllByChequeraIds(Integer, Integer, Long, Integer, Integer) List~ChequeraCuota~
            +findAllByAlternativa(Integer, Integer, Long, Integer, Integer) List~ChequeraCuota~
            +findAllByAlternativaConImporte(Integer, Integer, Long, Integer, Integer) List~ChequeraCuota~
            +findAllDebidas(Integer, Integer, Long) List~ChequeraCuota~
            +findAllInconsistencias() List~ChequeraCuota~
            +findAllPendientes(Integer, Integer, Long) List~ChequeraCuota~
            +findAllPendientesBaja(Integer) List~ChequeraCuota~
            +findAllPeriodosLectivo(Integer, Integer, Long) List~Integer~
            +findAllByFacultadTipoChequeraSerieIds(List~Integer~, Integer, Long) List~ChequeraCuota~
            +findById(Long) Optional~ChequeraCuota~
            +findByUnique(Integer, Integer, Long, Integer, Integer, Integer) Optional~ChequeraCuota~
            +findOneActivaImpagaPrevia(Integer, Integer, Long, Integer, Integer, Integer) Optional~ChequeraCuota~
            +saveAll(List~ChequeraCuota~) List~ChequeraCuota~
            +update(ChequeraCuota) ChequeraCuota
            +updateBarras(Integer, Integer, Long, Integer, Integer, String, String) void
            +deleteAllByChequera(Integer, Integer, Long) void
            +calculateTotalCuotasActivas(Integer, Integer, Long, Integer, Integer) BigDecimal
            +calculateTotalCuotasPagadas(Integer, Integer, Long, Integer, Integer) BigDecimal
        }

        class CalculateDeudaUseCase { << interface >> }
        class CalculateTotalCuotasActivasUseCase { << interface >> }
        class CalculateTotalCuotasPagadasUseCase { << interface >> }
        class DeleteAllByChequeraUseCase { << interface >> }
        class FindAllByChequeraAlternativaConImporteUseCase { << interface >> }
        class FindAllByChequeraAlternativaUseCase { << interface >> }
        class FindAllByChequeraIdsUseCase { << interface >> }
        class FindAllByChequeraUseCase { << interface >> }
        class FindAllByFacultadTipoChequeraSerieIdsUseCase { << interface >> }
        class FindAllDebidasUseCase { << interface >> }
        class FindAllInconsistenciasUseCase { << interface >> }
        class FindAllPendientesBajaUseCase { << interface >> }
        class FindAllPendientesUseCase { << interface >> }
        class FindAllPeriodosLectivoUseCase { << interface >> }
        class GetChequeraCuotaByIdUseCase { << interface >> }
        class GetChequeraCuotaByUniqueUseCase { << interface >> }
        class GetCuotaActualUseCase { << interface >> }
        class GetOneActivaImpagaPreviaUseCase { << interface >> }
        class SaveAllChequeraCuotasUseCase { << interface >> }
        class UpdateBarrasUseCase { << interface >> }
        class UpdateChequeraCuotaUseCase { << interface >> }
    }

    namespace application {
        class ChequeraCuotaService {
            -20+ use cases inyectados
            +findAllByChequera() List~ChequeraCuota~
            +findAllByChequeraIds() List~ChequeraCuota~
            +findAllByAlternativa() List~ChequeraCuota~
            +findAllByAlternativaConImporte() List~ChequeraCuota~
            +findAllDebidas() List~ChequeraCuota~
            +findAllInconsistencias() List~ChequeraCuota~
            +findAllPendientes() List~ChequeraCuota~
            +findAllPendientesBaja() List~ChequeraCuota~
            +findAllPeriodosLectivo() List~Integer~
            +findById(Long) ChequeraCuota
            +findByUnique(...) ChequeraCuota
            +getCuotaActual(Integer, Integer, Long, Integer, Integer, OffsetDateTime) ChequeraCuota
            +findOneActivaImpagaPrevia(...) ChequeraCuota
            +saveAll(List~ChequeraCuota~) List~ChequeraCuota~
            +update(ChequeraCuota) ChequeraCuota
            +updateBarras(...) void
            +deleteAllByChequera(...) void
            +calculateTotalCuotasActivas(...) BigDecimal
            +calculateTotalCuotasPagadas(...) BigDecimal
            +calculateDeuda(ChequeraSerie) DeudaChequeraDto
        }

        class ChequeraCuotaCalculoDeudaService {
            +calculateTotalCuotasActivas() BigDecimal
            +calculateTotalCuotasPagadas() BigDecimal
        }

        class ChequeraCuotaDeudaService {
            +calculateDeuda(ChequeraSerie) DeudaChequeraDto
        }

    }
    namespace application_usecases {
            class CalculateDeudaUseCaseImpl
            class CalculateTotalCuotasActivasUseCaseImpl
            class CalculateTotalCuotasPagadasUseCaseImpl
            class DeleteAllByChequeraUseCaseImpl
            class FindAllByChequeraAlternativaConImporteUseCaseImpl
            class FindAllByChequeraAlternativaUseCaseImpl
            class FindAllByChequeraIdsUseCaseImpl
            class FindAllByChequeraUseCaseImpl
            class FindAllByFacultadTipoChequeraSerieIdsUseCaseImpl
            class FindAllDebidasUseCaseImpl
            class FindAllInconsistenciasUseCaseImpl
            class FindAllPendientesBajaUseCaseImpl
            class FindAllPendientesUseCaseImpl
            class FindAllPeriodosLectivoUseCaseImpl
            class GetChequeraCuotaByIdUseCaseImpl
            class GetChequeraCuotaByUniqueUseCaseImpl
            class GetCuotaActualUseCaseImpl
            class GetOneActivaImpagaPreviaUseCaseImpl
            class SaveAllChequeraCuotasUseCaseImpl
            class UpdateBarrasUseCaseImpl
            class UpdateChequeraCuotaUseCaseImpl
    }
    namespace application {

        class ChequeraCuotaException
    }

    namespace infrastructure_persistence {
            class ChequeraCuotaEntity {
                +@Table(name="chequera_cuota")
                +Long chequeraCuotaId
                +Integer facultadId
                +Integer tipoChequeraId
                +Long chequeraSerieId
                +Integer productoId
                +Integer alternativaId
                +Integer cuotaId
                +OffsetDateTime vencimiento1
                +BigDecimal importe1
            }

            class JpaChequeraCuotaRepository {
                << JpaRepository >>
                +findAllByFacultadIdAndTipoChequeraIdAndChequeraSerieId(...) List~ChequeraCuotaEntity~
                +findByChequeraCuotaId(Long) Optional~ChequeraCuotaEntity~
            }

            class JpaChequeraCuotaRepositoryAdapter
            class ChequeraCuotaMapper {
                -FacultadMapper facultadMapper
                -TipoChequeraMapper tipoChequeraMapper
                -ProductoMapper productoMapper
                -ChequeraSerieMapper chequeraSerieMapper
                +toDomain(ChequeraCuotaEntity) ChequeraCuota
                +toEntity(ChequeraCuota) ChequeraCuotaEntity
            }
    }
    namespace infrastructure_web {
            class ChequeraCuotaController {
                -ChequeraCuotaService service
                -ChequeraCuotaDeudaService deudaService
                -ChequeraCuotaCalculoDeudaService calculoService
                -ChequeraCuotaDtoMapper dtoMapper
                +findAllByChequera(...) ResponseEntity
                +findAllDebidas(...) ResponseEntity
                +findAllInconsistencias() ResponseEntity
                +findById(Long) ResponseEntity
                +calculateDeuda(...) ResponseEntity
                +update(...) ResponseEntity
                +updateBarras(...) ResponseEntity
                +getCuotaActual(Integer, Integer, Long, Integer, Integer) ResponseEntity
            }

            class ChequeraCuotaRequest {
                +Integer facultadId
                +Integer tipoChequeraId
                +Long chequeraSerieId
                +Integer productoId
                +Integer alternativaId
                +Integer cuotaId
                +BigDecimal importe1
                +OffsetDateTime vencimiento1
            }

            class ChequeraCuotaResponse {
                +Integer facultadId
                +Integer tipoChequeraId
                +Long chequeraSerieId
                +Integer productoId
                +Integer alternativaId
                +Integer cuotaId
                +BigDecimal importe1
                +OffsetDateTime vencimiento1
                +String codigoBarras
                +Facultad facultad
                +TipoChequera tipoChequera
                +Producto producto
                +ChequeraSerie chequeraSerie
            }

            class ChequeraCuotaDtoMapper {
                +toDomain(ChequeraCuotaRequest) ChequeraCuota
                +toResponse(ChequeraCuota) ChequeraCuotaResponse
            }
    }

    namespace external {
        class FacultadService
        class TipoChequeraService
        class LectivoService
    }

    ChequeraCuota --> Facultad : references
    ChequeraCuota --> TipoChequera : references
    ChequeraCuota --> Producto : references
    ChequeraCuota --> ChequeraSerie : references

    ChequeraCuotaService --> CalculateDeudaUseCase : uses
    ChequeraCuotaService --> CalculateTotalCuotasActivasUseCase : uses
    ChequeraCuotaService --> CalculateTotalCuotasPagadasUseCase : uses
    ChequeraCuotaService --> DeleteAllByChequeraUseCase : uses
    ChequeraCuotaService --> FindAllByChequeraAlternativaConImporteUseCase : uses
    ChequeraCuotaService --> FindAllByChequeraAlternativaUseCase : uses
    ChequeraCuotaService --> FindAllByChequeraIdsUseCase : uses
    ChequeraCuotaService --> FindAllByChequeraUseCase : uses
    ChequeraCuotaService --> FindAllByFacultadTipoChequeraSerieIdsUseCase : uses
    ChequeraCuotaService --> FindAllDebidasUseCase : uses
    ChequeraCuotaService --> FindAllInconsistenciasUseCase : uses
    ChequeraCuotaService --> FindAllPendientesBajaUseCase : uses
    ChequeraCuotaService --> FindAllPendientesUseCase : uses
    ChequeraCuotaService --> FindAllPeriodosLectivoUseCase : uses
    ChequeraCuotaService --> GetChequeraCuotaByIdUseCase : uses
    ChequeraCuotaService --> GetChequeraCuotaByUniqueUseCase : uses
    ChequeraCuotaService --> GetCuotaActualUseCase : uses
    ChequeraCuotaService --> GetOneActivaImpagaPreviaUseCase : uses
    ChequeraCuotaService --> SaveAllChequeraCuotasUseCase : uses
    ChequeraCuotaService --> UpdateBarrasUseCase : uses
    ChequeraCuotaService --> UpdateChequeraCuotaUseCase : uses

    CalculateDeudaUseCaseImpl ..|> CalculateDeudaUseCase : implements
    CalculateTotalCuotasActivasUseCaseImpl ..|> CalculateTotalCuotasActivasUseCase : implements
    CalculateTotalCuotasPagadasUseCaseImpl ..|> CalculateTotalCuotasPagadasUseCase : implements
    DeleteAllByChequeraUseCaseImpl ..|> DeleteAllByChequeraUseCase : implements
    FindAllByChequeraAlternativaConImporteUseCaseImpl ..|> FindAllByChequeraAlternativaConImporteUseCase : implements
    FindAllByChequeraAlternativaUseCaseImpl ..|> FindAllByChequeraAlternativaUseCase : implements
    FindAllByChequeraIdsUseCaseImpl ..|> FindAllByChequeraIdsUseCase : implements
    FindAllByChequeraUseCaseImpl ..|> FindAllByChequeraUseCase : implements
    FindAllByFacultadTipoChequeraSerieIdsUseCaseImpl ..|> FindAllByFacultadTipoChequeraSerieIdsUseCase : implements
    FindAllDebidasUseCaseImpl ..|> FindAllDebidasUseCase : implements
    FindAllInconsistenciasUseCaseImpl ..|> FindAllInconsistenciasUseCase : implements
    FindAllPendientesBajaUseCaseImpl ..|> FindAllPendientesBajaUseCase : implements
    FindAllPendientesUseCaseImpl ..|> FindAllPendientesUseCase : implements
    FindAllPeriodosLectivoUseCaseImpl ..|> FindAllPeriodosLectivoUseCase : implements
    GetChequeraCuotaByIdUseCaseImpl ..|> GetChequeraCuotaByIdUseCase : implements
    GetChequeraCuotaByUniqueUseCaseImpl ..|> GetChequeraCuotaByUniqueUseCase : implements
    GetCuotaActualUseCaseImpl ..|> GetCuotaActualUseCase : implements
    GetOneActivaImpagaPreviaUseCaseImpl ..|> GetOneActivaImpagaPreviaUseCase : implements
    SaveAllChequeraCuotasUseCaseImpl ..|> SaveAllChequeraCuotasUseCase : implements
    UpdateBarrasUseCaseImpl ..|> UpdateBarrasUseCase : implements
    UpdateChequeraCuotaUseCaseImpl ..|> UpdateChequeraCuotaUseCase : implements

    CalculateDeudaUseCaseImpl --> ChequeraCuotaRepository : uses
    CalculateTotalCuotasActivasUseCaseImpl --> ChequeraCuotaRepository : uses
    CalculateTotalCuotasPagadasUseCaseImpl --> ChequeraCuotaRepository : uses
    DeleteAllByChequeraUseCaseImpl --> ChequeraCuotaRepository : uses
    FindAllByChequeraAlternativaConImporteUseCaseImpl --> ChequeraCuotaRepository : uses
    FindAllByChequeraAlternativaUseCaseImpl --> ChequeraCuotaRepository : uses
    FindAllByChequeraIdsUseCaseImpl --> ChequeraCuotaRepository : uses
    FindAllByChequeraUseCaseImpl --> ChequeraCuotaRepository : uses
    FindAllByFacultadTipoChequeraSerieIdsUseCaseImpl --> ChequeraCuotaRepository : uses
    FindAllDebidasUseCaseImpl --> ChequeraCuotaRepository : uses
    FindAllInconsistenciasUseCaseImpl --> ChequeraCuotaRepository : uses
    FindAllPendientesBajaUseCaseImpl --> ChequeraCuotaRepository : uses
    FindAllPendientesUseCaseImpl --> ChequeraCuotaRepository : uses
    FindAllPeriodosLectivoUseCaseImpl --> ChequeraCuotaRepository : uses
    GetChequeraCuotaByIdUseCaseImpl --> ChequeraCuotaRepository : uses
    GetChequeraCuotaByUniqueUseCaseImpl --> ChequeraCuotaRepository : uses
    GetCuotaActualUseCaseImpl --> ChequeraCuotaRepository : uses
    GetOneActivaImpagaPreviaUseCaseImpl --> ChequeraCuotaRepository : uses
    SaveAllChequeraCuotasUseCaseImpl --> ChequeraCuotaRepository : uses
    UpdateBarrasUseCaseImpl --> ChequeraCuotaRepository : uses
    UpdateChequeraCuotaUseCaseImpl --> ChequeraCuotaRepository : uses

    JpaChequeraCuotaRepositoryAdapter ..|> ChequeraCuotaRepository : implements
    JpaChequeraCuotaRepositoryAdapter --> JpaChequeraCuotaRepository : uses
    JpaChequeraCuotaRepositoryAdapter --> ChequeraCuotaMapper : uses

    ChequeraCuotaMapper --> ChequeraCuota : maps
    ChequeraCuotaMapper --> ChequeraCuotaEntity : maps
    ChequeraCuotaMapper --> FacultadMapper : uses
    ChequeraCuotaMapper --> TipoChequeraMapper : uses
    JpaChequeraCuotaRepository --> ChequeraCuotaEntity : persists

    ChequeraCuotaController --> ChequeraCuotaService : calls
    ChequeraCuotaController --> ChequeraCuotaDeudaService : calls
    ChequeraCuotaController --> ChequeraCuotaCalculoDeudaService : calls
    ChequeraCuotaController --> ChequeraCuotaDtoMapper : uses
    ChequeraCuotaDtoMapper --> ChequeraCuota : maps
    ChequeraCuotaDtoMapper --> ChequeraCuotaRequest : maps
    ChequeraCuotaDtoMapper --> ChequeraCuotaResponse : maps
